<svg xmlns="http://www.w3.org/2000/svg" xmlns:xlink="http://www.w3.org/1999/xlink"><symbol viewBox="0 0 16 16" id="icon-chevron-down-sm" xmlns="http://www.w3.org/2000/svg"><path stroke="var(--icon-stroke)" fill="none" stroke-linecap="round" stroke-linejoin="round" stroke-width="var(--icon-stroke-width)" d="M4 6.5l4 4 4-4"/></symbol><symbol viewBox="0 0 24 24" id="icon-chevron-right" xmlns="http://www.w3.org/2000/svg"><path stroke="var(--icon-stroke)" fill="none" stroke-linecap="round" stroke-linejoin="round" stroke-width="var(--icon-stroke-width)" d="M9 18l6-6-6-6"/></symbol><symbol viewBox="0 0 24 24" id="icon-close" xmlns="http://www.w3.org/2000/svg"><path fill="none" stroke="var(--icon-stroke)" stroke-linecap="round" stroke-linejoin="round" stroke-width="var(--icon-stroke-width)" d="M18 6L6 18M6 6l12 12"/></symbol><symbol fill="none" viewBox="0 0 24 24" id="icon-eye" xmlns="http://www.w3.org/2000/svg"><path clip-rule="evenodd" d="M2.25 12.828a1.499 1.499 0 010-1.655C4.29 8.063 7.893 6 12 6s7.71 2.064 9.75 5.172a1.5 1.5 0 010 1.655C19.71 15.936 16.107 18 12 18s-7.71-2.065-9.75-5.172z" stroke="#4CB37C" stroke-width="2"/><path d="M14 12a2 2 0 11-4 0 2 2 0 014 0z" stroke="#4CB37C" stroke-width="2"/></symbol></svg>