<svg width="24" height="24" viewBox="0 0 24 24" fill="none" xmlns="http://www.w3.org/2000/svg">
<path fill-rule="evenodd" clip-rule="evenodd" d="M2.24913 12.8275C1.91696 12.3216 1.91696 11.6784 2.24913 11.1725C4.28988 8.06446 7.89417 6 12 6C16.1058 6 19.7101 8.06446 21.7509 11.1725C22.083 11.6784 22.083 12.3216 21.7509 12.8275C19.7101 15.9355 16.1058 18 12 18C7.89417 18 4.28988 15.9355 2.24913 12.8275Z" stroke="#4CB37C" stroke-width="2"/>
<path d="M14 12C14 13.1046 13.1046 14 12 14C10.8954 14 10 13.1046 10 12C10 10.8954 10.8954 10 12 10C13.1046 10 14 10.8954 14 12Z" stroke="#4CB37C" stroke-width="2"/>
</svg>
